<svg version="1.1" xmlns="http://www.w3.org/2000/svg" xmlns:xlink="http://www.w3.org/1999/xlink" width="73.22828" height="135.81854" viewBox="0,0,73.22828,135.81854"><defs><radialGradient cx="245.4268" cy="198.8327" r="30.367" gradientUnits="userSpaceOnUse" id="color-1"><stop offset="0" stop-color="#f0d520"/><stop offset="1" stop-color="#ff9400"/></radialGradient><radialGradient cx="247.70169" cy="201.20232" r="0.87973" gradientUnits="userSpaceOnUse" id="color-2"><stop offset="0" stop-color="#f0d520"/><stop offset="1" stop-color="#ff9400"/></radialGradient><radialGradient cx="255.9677" cy="119.4811" r="71.3921" gradientUnits="userSpaceOnUse" id="color-3"><stop offset="0" stop-color="#ffff00"/><stop offset="1" stop-color="#ff9400"/></radialGradient></defs><g transform="translate(-211.16672,-90.02286)"><g data-paper-data="{&quot;isPaintingLayer&quot;:true}" fill-rule="nonzero" stroke-linejoin="miter" stroke-miterlimit="10" stroke-dasharray="" stroke-dashoffset="0" style="mix-blend-mode: normal"><g><g fill="url(#color-1)" stroke="none" stroke-width="1" stroke-linecap="butt"><g><path d="M242.7298,180.3867c-1.0926,1.2519 -2.2616,2.5703 -2.9201,4.1207c-0.17673,0.41555 -0.27809,0.76571 -0.33521,1.0346c0.43497,1.02095 1.10268,1.94777 2.10561,2.4907c0.44302,0.23986 0.88319,0.41221 1.31033,0.51807c0.47144,-1.43486 1.61595,-3.62426 2.58144,-4.68888c0.42639,0.78981 0.95594,1.51573 1.57061,2.1597c0.01104,1.43249 -0.01668,2.86995 -0.09597,4.29641c-0.16255,2.89463 -2.21681,3.69527 -4.20031,3.16128c0.04889,0.33874 0.20488,0.77655 0.48841,1.50012c0.3982,1.0179 0.8043,2.0901 1.5016,2.9529c0.01518,0.01922 0.41795,0.43356 0.88079,0.8713c0.60957,-0.73291 1.3156,-1.39875 2.12551,-1.9828c-0.0193,0.98662 -0.0386,1.97288 -0.05789,2.95921c0.10377,0.86347 0.17063,1.67032 -0.03991,2.03989c-0.5645,0.9911 -0.6728,1.8252 -0.7124,2.9786c-0.0012,0.114 -0.0075,0.2289 -0.0197,0.3417c-0.54835,-0.41291 -1.03332,-0.85728 -1.46155,-1.32865c-4.36224,5.10987 -1.55468,11.79752 3.15485,17.03075c0.8311,0.9235 -0.8936,4.1143 -0.0977,4.9991c-4.9183,-5.46556 -8.07648,-16.77196 -4.61056,-24.29245c-1.23729,-2.44228 -1.52194,-5.29947 -1.46275,-8.16462c-1.62959,-0.55563 -3.1404,-1.99663 -3.42279,-3.89363c-0.7884,-5.3074 0.2439,-10.0151 3.8145,-14.1031c-0.8236,0.9431 0.7576,4.0196 -0.0968,4.9991zM247.52568,197.24517c0.06421,-0.14153 0.13618,-0.28281 0.21682,-0.42437c-0.1109,0.08007 -0.17917,0.22787 -0.21682,0.42437zM239.40918,185.97766c-0.01615,0.22167 0.01802,0.23912 0,0z"/></g></g><path d="M248.35,197.85c0,0 0.109,3.016 -0.1,4.5c-0.096,0.68 -0.8,1.9 -0.8,1.9" fill="none" stroke="url(#color-2)" stroke-width="2" stroke-linecap="round"/></g><path d="M283.8678,138.5885c-0.08022,0.58429 -0.17498,1.16471 -0.28367,1.74112c-0.58504,-0.10657 -1.18784,-0.16223 -1.80365,-0.16223c-5.52285,0 -10,4.47715 -10,10c0,3.1653 1.47064,5.98712 3.76592,7.81945c-4.08438,5.55946 -9.16503,10.32205 -14.21536,14.04296c-1.80826,-1.79949 -4.30113,-2.91167 -7.05376,-2.91167c-5.52285,0 -10,4.47715 -10,10c0,0.52193 0.03998,1.03452 0.11706,1.53487c-0.93983,0.19605 -1.77398,0.28461 -2.47944,0.2602c-5.21976,-0.18038 -14.54644,-8.03931 -21.56358,-19.10934c2.63251,-1.80122 4.35996,-4.82832 4.35996,-8.25888c0,-5.52285 -4.47715,-10 -10,-10c-0.77133,0 -1.52226,0.08733 -2.24345,0.25264c-1.2238,-4.98197 -1.66507,-10.11171 -0.97423,-15.14582c0.98702,-7.18737 3.28063,-13.79363 6.52706,-19.48515c1.72566,1.41666 3.93396,2.267 6.34087,2.267c5.52285,0 10,-4.47715 10,-10c0,-2.76707 -1.12387,-5.27165 -2.94005,-7.08217c2.56591,-1.74554 5.28893,-3.14025 8.11798,-4.13597c0.64917,4.89546 4.83981,8.67281 9.9127,8.67281c5.13924,0 9.37301,-3.87681 9.93635,-8.86547c2.77138,0.94143 5.37635,2.27969 7.78104,3.95852c-1.05006,1.58236 -1.66173,3.48086 -1.66173,5.52223c0,5.52285 4.47715,10 10,10c1.39398,0 2.72135,-0.28523 3.92692,-0.80051c4.16184,8.50534 5.93353,18.95563 4.43306,29.8854zM270.20019,131.69917c5.52285,0 10,-4.47715 10,-10c0,-5.52285 -4.47715,-10 -10,-10c-5.52285,0 -10,4.47715 -10,10c0,5.52285 4.47715,10 10,10zM241.24945,123.97897c5.52285,0 10,-4.47715 10,-10c0,-5.52285 -4.47715,-10 -10,-10c-5.52285,0 -10,4.47715 -10,10c0,5.52285 4.47715,10 10,10zM237.87187,171.26518c5.52285,0 10,-4.47715 10,-10c0,-5.52285 -4.47715,-10 -10,-10c-5.52285,0 -10,4.47715 -10,10c0,5.52285 4.47715,10 10,10zM259.58492,152.92971c5.52285,0 10,-4.47715 10,-10c0,-5.52285 -4.47715,-10 -10,-10c-5.52285,0 -10,4.47715 -10,10c0,5.52285 4.47715,10 10,10zM226.77409,144.24449c5.52285,0 10,-4.47715 10,-10c0,-5.52285 -4.47715,-10 -10,-10c-5.52285,0 -10,4.47715 -10,10c0,5.52285 4.47715,10 10,10z" fill="url(#color-3)" stroke="none" stroke-width="1" stroke-linecap="butt"/></g></g></svg>