<svg version="1.1" xmlns="http://www.w3.org/2000/svg" xmlns:xlink="http://www.w3.org/1999/xlink" width="421.40808" height="279.30013" viewBox="0,0,421.40808,279.30013"><defs><radialGradient cx="240.9747" cy="188.3043" r="35.2121" gradientUnits="userSpaceOnUse" id="color-1"><stop offset="0" stop-color="#0033cc"/><stop offset="1" stop-color="#00ffff"/></radialGradient><radialGradient cx="256.11987" cy="113.49503" r="79.3137" gradientUnits="userSpaceOnUse" id="color-2"><stop offset="0" stop-color="#00ffff"/><stop offset="1" stop-color="#0033cc"/></radialGradient></defs><g transform="translate(-25.47903,53.45873)"><g data-paper-data="{&quot;isPaintingLayer&quot;:true}" fill-rule="nonzero" stroke-linejoin="miter" stroke-miterlimit="10" stroke-dasharray="" stroke-dashoffset="0" style="mix-blend-mode: normal"><g data-paper-data="{&quot;index&quot;:null}"><g fill="url(#color-1)" stroke="none" stroke-width="1" stroke-linecap="butt"><g><path d="M242.3266,175.3876c-0.8236,0.9431 0.7576,4.0196 -0.0968,4.9991c-1.0926,1.2519 -2.2616,2.5703 -2.9201,4.1207c-0.8188,1.9253 -0.0198,2.4471 -0.6988,-0.0157c0.3876,1.4049 1.1292,2.8156 2.4692,3.541c2.6218,1.4195 5.1437,0.4746 5.4564,-2.6248c-0.035,1.6366 -0.069,3.2722 -0.103,4.9099c-0.0273,-1.1618 0.287,-3.375 -1.2947,-1.8197c-0.8016,0.7875 -1.6147,1.6038 -2.0703,2.657c-0.8884,2.0531 -1.1827,1.6582 -0.3339,3.8243c0.3982,1.0179 0.8043,2.0901 1.5016,2.9529c0.0361,0.0457 2.2629,2.3247 2.2794,1.8419c0.0371,-1.0785 0.1893,-2.0097 0.7269,-2.9534c-0.0326,1.6667 -0.0652,3.3324 -0.0978,4.9991c-7.2851,5.2536 -4.3895,13.0767 0.9612,19.0224c0.8311,0.9235 -0.8936,4.1143 -0.0977,4.9991c-6.131,-6.8132 -9.5269,-22.7027 -0.7657,-29.0206c-0.7406,0.5347 0.4201,4.09 -0.0978,4.9991c-0.5645,0.9911 -0.6728,1.8252 -0.7124,2.9786c-0.0012,0.114 -0.0075,0.2289 -0.0197,0.3417c-4.9747,-3.746 -4.7328,-10.0805 -4.236,-15.6868c0.1746,-1.975 4.237,-9.319 4.3454,-4.737c0.0436,1.8623 0.0279,3.7413 -0.0755,5.6016c-0.3055,5.4401 -7.2926,3.4841 -7.9344,-0.8273c-0.7884,-5.3074 0.2439,-10.0151 3.8145,-14.1031z"/></g></g><path d="M247.85,197.85c0,0 0.109,3.016 -0.1,4.5c-0.096,0.68 -0.8,1.9 -0.8,1.9" fill="none" stroke="#007fdf" stroke-width="2" stroke-linecap="round"/></g><path d="M278.54267,139.60353c-0.53747,3.91489 -1.72792,7.6562 -3.38698,11.17997c-0.0434,-0.00055 -0.08686,-0.00083 -0.13039,-0.00083c-5.52285,0 -10,4.47715 -10,10c0,1.28654 0.24295,2.51634 0.68549,3.64602c-10.23999,10.98378 -23.60898,17.69031 -29.12102,17.49955c-2.78406,-0.09621 -6.73647,-2.37683 -10.88363,-6.16401c2.60594,-1.805 4.31276,-4.81637 4.31276,-8.22639c0,-5.52285 -4.47715,-10 -10,-10c-2.55261,0 -4.88184,0.95641 -6.64889,2.53044c-1.63991,-2.87214 -3.1052,-5.92014 -4.29748,-9.0755c0.74262,-1.39765 1.16336,-2.99243 1.16336,-4.68548c0,-3.37254 -1.66951,-6.35514 -4.22716,-8.16643c-0.25876,-2.82626 -0.22577,-5.66504 0.15972,-8.47404c0.18177,-1.32361 0.40785,-2.6275 0.67603,-3.90961c1.78927,2.70798 4.86066,4.49441 8.34929,4.49441c5.52285,0 10,-4.47715 10,-10c0,-5.52285 -4.47715,-10 -10,-10c-0.95524,0 -1.8792,0.13394 -2.75412,0.38406c3.143,-5.64503 7.21671,-10.41378 11.88458,-13.98886c1.83364,2.25119 4.62764,3.68905 7.75746,3.68905c5.52285,0 10,-4.47715 10,-10c0,-0.26497 -0.01031,-0.52753 -0.03054,-0.7873c2.13186,-0.17229 4.29456,-0.11799 6.46939,0.18056c2.26936,0.31153 4.45435,0.87563 6.53989,1.66724c-0.11027,0.59472 -0.16791,1.20792 -0.16791,1.83458c0,5.52285 4.47715,10 10,10c1.61543,0 3.1414,-0.38305 4.49203,-1.06327c3.78158,4.79064 6.60503,10.68012 8.19981,17.21894c-0.92705,1.5168 -1.4613,3.29982 -1.4613,5.20763c0,2.77019 1.12641,5.27729 2.94619,7.08828c0.01202,2.59724 -0.1592,5.24475 -0.52661,7.92101zM262.47999,127.83907c5.52285,0 10,-4.47715 10,-10c0,-5.52285 -4.47715,-10 -10,-10c-5.52285,0 -10,4.47715 -10,10c0,5.52285 4.47715,10 10,10zM239.3194,122.04892c5.52285,0 10,-4.47715 10,-10c0,-5.52285 -4.47715,-10 -10,-10c-5.52285,0 -10,4.47715 -10,10c0,5.52285 4.47715,10 10,10zM264.41004,151.48217c5.52285,0 10,-4.47715 10,-10c0,-5.52285 -4.47715,-10 -10,-10c-5.52285,0 -10,4.47715 -10,10c0,5.52285 4.47715,10 10,10zM248.48714,174.16025c5.52285,0 10,-4.47715 10,-10c0,-5.52285 -4.47715,-10 -10,-10c-5.52285,0 -10,4.47715 -10,10c0,5.52285 4.47715,10 10,10zM226.77409,152.92971c5.52285,0 10,-4.47715 10,-10c0,-5.52285 -4.47715,-10 -10,-10c-5.52285,0 -10,4.47715 -10,10c0,5.52285 4.47715,10 10,10z" data-paper-data="{&quot;index&quot;:null}" fill="url(#color-2)" stroke="none" stroke-width="1" stroke-linecap="butt"/><path d="M25.47904,191.18094c0,-1.38071 1.11929,-2.5 2.5,-2.5c1.38071,0 2.5,1.11929 2.5,2.5c0,1.38071 -1.11929,2.5 -2.5,2.5c-1.38071,0 -2.5,-1.11929 -2.5,-2.5z" fill="#0021ff" stroke="none" stroke-width="0.5" stroke-linecap="butt"/><path d="M441.88711,64.28022c0,-1.38071 1.11929,-2.5 2.5,-2.5c1.38071,0 2.5,1.11929 2.5,2.5c0,1.38071 -1.11929,2.5 -2.5,2.5c-1.38071,0 -2.5,-1.11929 -2.5,-2.5z" fill="#0021ff" stroke="none" stroke-width="0.5" stroke-linecap="butt"/><path d="M218.1763,-6.27265c0,0.4717 -0.13064,0.9129 -0.35771,1.28937c0.303,2.51478 1.00036,5.49772 0.267,7.58067c-1.64513,4.67258 -7.34317,5.93493 -11.51235,3.34543c-3.37078,-2.09361 -3.57415,-6.82381 -3.54882,-10.59168c-3.1235,-1.29913 -5.49113,-3.72871 -9.02462,-5.09275c0,0 -2.32119,-0.92847 -1.39272,-3.24966c0.92847,-2.32119 3.24967,-1.39272 3.24967,-1.39272c2.73666,1.12368 5.62764,3.93744 8.71043,5.28485c0.27345,-0.09815 0.59596,-0.15603 0.97636,-0.15603c1.0092,0 1.611,0.40739 1.96987,0.89326c0.66699,0.02566 1.34279,-0.05481 2.02774,-0.26982c0.70011,-0.21977 1.45399,-1.03941 2.18216,-2.00714c-0.32986,-1.45743 1.00545,-2.45891 1.00545,-2.45891l0.54232,0.24209c0.4154,-0.60334 0.79576,-1.12917 1.11996,-1.45739l0.03311,0.12909c0.33868,-0.64815 0.95323,-1.12932 1.68783,-1.28768c-0.02668,-0.14636 -0.04062,-0.29717 -0.04062,-0.45122c0,-1.38071 1.11929,-2.5 2.5,-2.5c1.38071,0 2.5,1.11929 2.5,2.5c0,1.19909 -0.8442,2.20101 -1.97066,2.44385c0.02668,0.14636 0.04062,0.29716 0.04062,0.45122c0,0.95344 -0.53373,1.78223 -1.31872,2.20387l0.10397,0.04641c-0.64112,0.63128 -1.1895,1.33988 -1.71709,2.06187c1.12455,0.24429 1.96681,1.24529 1.96681,2.44302zM288.09997,-53.45873c0.00062,0.061 0.00148,0.12189 0.00262,0.18266c0.05301,-0.06046 0.10888,-0.11836 0.16742,-0.17346c-0.05676,-0.00335 -0.11345,-0.00645 -0.17004,-0.0092zM289.43601,-47.92137c0.14494,0.07934 0.2993,0.12221 0.45977,0.14204c0.00033,-0.07776 0.00419,-0.1547 0.01146,-0.23063c-0.0076,-0.0794 -0.01149,-0.15987 -0.01149,-0.24125c0,-0.02385 0.00033,-0.04762 0.001,-0.0713c-0.22282,0.08365 -0.46076,0.13641 -0.70859,0.15305c0.06012,0.10277 0.13919,0.18863 0.24785,0.2481zM293.14955,-51.6006c-0.02474,-0.21527 -0.0492,-0.43062 -0.073,-0.64604c-0.04457,0.07213 -0.09269,0.14182 -0.14414,0.20883c0.02074,0.126 0.03205,0.25519 0.0332,0.3868c0.06224,0.01451 0.12359,0.03134 0.18394,0.05041z" fill="#ff0000" stroke="none" stroke-width="0.5" stroke-linecap="butt"/></g></g></svg>